<svg width="32" height="32" viewBox="0 0 32 32" fill="none" xmlns="http://www.w3.org/2000/svg">
<g clip-path="url(#clip0_3252_148392)">
<g clip-path="url(#clip1_3252_148392)">
<path d="M18.968 1.32562L19.8548 3.40275C21.5954 7.48112 24.8439 10.7296 28.9222 12.4702L30.9994 13.357C31.543 13.5888 31.9843 13.9212 32.325 14.3172C31.2906 6.90039 25.4246 1.03362 18.0078 0C18.403 0.33984 18.7362 0.78198 18.968 1.32562H18.968Z" fill="#999999"/>
<path d="M1.32562 13.357L3.40277 12.4702C7.48114 10.7296 10.7296 7.48112 12.471 3.40275L13.357 1.32562C13.5896 0.78198 13.9221 0.33984 14.3172 0C6.90039 1.03362 1.03442 6.90039 0 14.3172C0.34067 13.9212 0.78201 13.5888 1.32562 13.357Z" fill="#999999"/>
<path d="M30.9994 18.9641L28.9222 19.8509C24.8439 21.5915 21.5954 24.8408 19.8548 28.9192L18.968 30.9955C18.7362 31.5391 18.403 31.9813 18.0078 32.3219C25.4246 31.2875 31.2906 25.4207 32.325 18.0039C31.9843 18.3999 31.543 18.7323 30.9994 18.9641H30.9994Z" fill="#999999"/>
<path d="M13.357 30.9974L12.471 28.9211C10.7296 24.8427 7.48114 21.5934 3.40277 19.8529L1.32562 18.9661C0.78201 18.7342 0.34067 18.4018 0 18.0059C1.03442 25.4227 6.90039 31.2895 14.3172 32.3239C13.9221 31.9832 13.5896 31.5411 13.357 30.9974Z" fill="#999999"/>
</g>
<path d="M9.04033 14.6276L10.0047 14.2157C11.8979 13.4074 13.4063 11.8998 14.2145 10.0067L14.6256 9.04229C15.2022 7.69163 17.1171 7.69163 17.6937 9.04229L18.1048 10.0067C18.913 11.8998 20.4215 13.4074 22.3145 14.2157L23.279 14.6276C24.6296 15.2042 24.6296 17.1182 23.279 17.6949L22.3145 18.1068C20.4215 18.915 18.913 20.4226 18.1048 22.3165L17.6937 23.2801C17.1171 24.6308 15.2022 24.6308 14.6256 23.2801L14.2145 22.3165C13.4063 20.4226 11.8979 18.915 10.0047 18.1068L9.04033 17.6949C7.68968 17.1182 7.68968 15.2042 9.04033 14.6276Z" fill="white"/>
</g>
<defs>
<clipPath id="clip0_3252_148392">
<rect width="32" height="31.9999" fill="white"/>
</clipPath>
<clipPath id="clip1_3252_148392">
<rect width="32.3232" height="32.323" fill="white"/>
</clipPath>
</defs>
</svg>
