<svg width="40" height="40" viewBox="0 0 40 40" fill="none" xmlns="http://www.w3.org/2000/svg">
<rect width="40" height="40" rx="6" fill="#FF0420"/>
<path d="M20 4C11.2 4 4 11.2 4 20C4 28.8 11.2 36 20 36C28.8 36 36 28.8 36 20C36 11.2 28.8 4 20 4ZM20 28.16V34.16C13.84 34.16 8.88 29.2 8.88 23.04C8.88 16.88 13.84 11.92 20 11.92V5.92C26.16 5.92 31.12 10.88 31.12 17.04C31.12 23.2 26.16 28.16 20 28.16Z" fill="white"/>
<path d="M20.0801 14.4805H20.0001C18.8001 16.8805 16.9601 18.7205 14.5601 19.9205C16.9601 21.2005 18.8001 23.0405 20.0001 25.5205H20.0801C21.2801 23.1205 23.1201 21.2805 25.5201 20.0805C23.1201 18.8005 21.2801 16.9605 20.0801 14.4805Z" fill="white"/>
</svg>
